<?xml version="1.0" encoding="utf-8"?>
<!-- Generator: Adobe Illustrator 19.2.0, SVG Export Plug-In . SVG Version: 6.00 Build 0)  -->
<svg version="1.1" id="Calque_1" xmlns="http://www.w3.org/2000/svg" xmlns:xlink="http://www.w3.org/1999/xlink" x="0px" y="0px"
	 viewBox="0 0 283.5 76.7" style="enable-background:new 0 0 283.5 76.7;" xml:space="preserve">
<style type="text/css">
	.st0{fill:#103B52;}
	.st1{fill:none;stroke:#103B52;stroke-width:0.129;}
	.st2{fill:#88CEDE;}
</style>
<g>
	<path class="st0" d="M43.6,20.8c0-1.6-1.2-2.7-2.7-2.7c-1.6,0-2.8,1.3-2.8,2.7v27.3c0,2.1-0.8,3.9-2.3,5.4c-1.4,1.4-3,2.1-4.9,2.2
		c-0.2,0-1.1,0-1.3,0c-2.1,0-3.9-0.8-5.4-2.3c-1.5-1.5-2.3-3.3-2.3-5.4V20.8c0-1.6-1.3-2.7-2.7-2.7c-1.4,0-2.7,1.2-2.7,2.7v27.3
		c0,3.7,1.3,6.7,3.8,9.3c2.6,2.6,5.7,3.9,9.3,3.9c0.1,0,0.9,0,1,0c3.5-0.1,6.6-1.3,9.1-3.8c2.6-2.6,3.9-5.7,3.9-9.4V20.8z"/>
	<path class="st0" d="M57.7,30.4c-2,0-3.8,0.8-5.3,2.2c-1.4,1.4-2.1,3.2-2.1,5.2v20.7c0,1.4,1.2,2.7,2.8,2.7c1.6,0,2.7-1.3,2.7-2.7
		V37.8c0-1.1,0.8-1.9,1.9-1.9H65c1.6,0,2.7-1.2,2.7-2.8c0-1.4-1.2-2.7-2.7-2.7H57.7z"/>
	<path class="st1" d="M57.7,30.4c-2,0-3.8,0.8-5.3,2.2c-1.4,1.4-2.1,3.2-2.1,5.2v20.7c0,1.4,1.2,2.7,2.8,2.7c1.6,0,2.7-1.3,2.7-2.7
		V37.8c0-1.1,0.8-1.9,1.9-1.9H65c1.6,0,2.7-1.2,2.7-2.8c0-1.4-1.2-2.7-2.7-2.7H57.7z"/>
	<path class="st0" d="M86,30.5c-1.6,0-2.7,1.3-2.7,2.7c0,1.4,1.2,2.7,2.7,2.7c1.9,0,3.5,0.7,4.9,2.1c1.3,1.3,2,3,2,4.8v2.9v3.1
		c0,1.9-0.7,3.5-2,4.9c-1.3,1.3-3,2-4.9,2h-4.6c-1.1,0-1.9-0.8-1.9-1.9v-36c0-1.6-1.2-2.8-2.8-2.8c-1.6,0-2.7,1.2-2.7,2.8v36
		c0,2,0.7,3.8,2.1,5.3c1.4,1.4,3.2,2.1,5.3,2.1H86c3.4,0,6.3-1.2,8.7-3.7c2.4-2.4,3.7-5.3,3.7-8.8v-6.1c0-3.4-1.2-6.3-3.7-8.7
		C92.3,31.7,89.4,30.5,86,30.5"/>
	<g>
		<path class="st2" d="M134.3,52.3c0.2,0.5,0.2,1.2,0.2,1.9c0,2-0.8,3.8-2.2,5.3c-1.4,1.4-3.2,2.1-5.2,2.1c-1.2,0-2.4-0.3-3.5-0.9
			L112.1,54c-0.3-0.2-0.6-0.2-1-0.2c-1,0-1.6,0.5-1.9,1.4l-0.9,3.6c-0.3,1.2-1.4,2-2.7,2c-1.8,0-3.1-1.7-2.7-3.5l1-3.5
			c0.9-3.2,3.7-5.5,7.1-5.5c1.3,0,2.6,0.3,3.7,1l11.4,6.6c0.3,0.2,0.6,0.2,0.9,0.2c1.1,0,2-0.8,2-1.9c0-0.1-0.1-0.3-0.1-0.5
			l-7.8-29.2c-0.3-0.9-0.9-1.4-1.9-1.4s-1.6,0.5-1.9,1.4l-4.8,17.8c-0.3,1.2-1.4,2-2.7,2c-1.8,0-3-1.6-2.6-3.4l4.8-17.8
			c0.9-3.2,3.8-5.5,7.2-5.5c3.4,0,6.3,2.3,7.1,5.5L134.3,52.3z"/>
	</g>
	<g>
		<path class="st0" d="M145.8,27.1c0,0.6,0.2,1.3,0.6,2l10.5,18.3c0.9,1.4,1.3,3.1,1.3,4.8c0,2.6-0.9,4.9-2.8,6.7
			c-1.8,1.8-4.1,2.7-6.7,2.7c-3.5,0-6.6-1.9-8.2-4.7c-0.8-1.2-0.3-3.1,1-3.8c1.2-0.7,3-0.3,3.8,1c0.8,1.3,1.9,2,3.5,2
			c2.1,0,4-1.9,4-4c0-0.8-0.2-1.4-0.5-2l-10.6-18.3c-0.9-1.4-1.3-3-1.3-4.7c0-2.6,0.9-4.9,2.8-6.7c1.9-1.9,4.1-2.8,6.7-2.8
			c3.1,0,5.8,1.4,7.9,4.3c1,1.3,0.7,3.4-0.8,4.1c-1.3,0.8-3,0.4-3.8-1c-0.8-1.3-1.9-2-3.4-2C147.6,23.1,145.8,25,145.8,27.1z"/>
	</g>
	<path class="st0" d="M171.6,55.1c-1.3-0.9-2.3-2-3-3.5c-0.7-1.5-1.1-3.1-1.1-5c0-1.9,0.4-3.5,1.1-5c0.7-1.5,1.7-2.6,3.1-3.5
		c1.3-0.9,2.8-1.3,4.5-1.3c1.7,0,3.2,0.4,4.5,1.3c1.3,0.9,2.3,2,3,3.5c0.7,1.5,1.1,3.1,1.1,5c0,1.8-0.4,3.5-1.1,5
		c-0.7,1.5-1.7,2.7-3,3.5c-1.3,0.9-2.8,1.3-4.5,1.3C174.4,56.4,172.9,55.9,171.6,55.1 M185.3,32.9c-0.5,0.5-0.8,1.2-0.8,1.9l0,4.7
		l2.2-0.1c0-0.8-0.3-1.6-0.8-2.5c-0.5-0.9-1.3-1.7-2.3-2.5c-1-0.8-2.1-1.4-3.5-1.9c-1.3-0.5-3.3-0.7-4.8-0.7c-2.4,0-4.6,0.6-6.6,1.9
		c-2,1.3-3.6,3-4.7,5.2c-1.2,2.2-1.7,4.8-1.7,7.7c0,2.8,0.6,5.4,1.7,7.6c1.2,2.2,2.7,4,4.7,5.2c2,1.3,4.2,1.9,6.8,1.9
		c1.4,0,3.7-0.3,5-0.9s2.3-1.1,3.3-2c0.9-0.7,1.6-1.5,2.2-2.3c0.5-0.8,0.8-1.5,0.8-2.2l-2.2,0.2V58c0,0.8,0.3,1.4,0.8,2
		c0.5,0.5,1.2,0.8,2,0.8c0.8,0,1.4-0.3,1.9-0.8c0.5-0.5,0.8-1.2,0.8-2V34.8c0-0.8-0.3-1.4-0.8-2c-0.5-0.5-1.2-0.8-1.9-0.8
		C186.4,32.1,185.8,32.3,185.3,32.9"/>
	<path class="st0" d="M219.8,58.6V41.7c0-2.8-1-5.2-2.9-7.2c-2-2-6-3-8.7-3s-6.5,1-8.5,3c-2,2-2.9,4.4-2.9,7.2v0.5v12.5v4.4
		c0,1.1,1.2,2.1,2.6,2.1c1.5,0,2.7-0.9,2.7-2.1v-4.4V42.2v-0.5c0-2.7,2.2-4.7,6.1-4.7c4,0,6.3,2.2,6.3,4.7v16.8
		c0,1.4,1.2,2.7,2.6,2.7C218.6,61.2,219.8,60,219.8,58.6"/>
	<path class="st1" d="M219.8,58.6V41.7c0-2.8-1-5.2-2.9-7.2c-2-2-6-3-8.7-3s-6.5,1-8.5,3c-2,2-2.9,4.4-2.9,7.2v0.5v12.5v4.4
		c0,1.1,1.2,2.1,2.6,2.1c1.5,0,2.7-0.9,2.7-2.1v-4.4V42.2v-0.5c0-2.7,2.2-4.7,6.1-4.7c4,0,6.3,2.2,6.3,4.7v16.8
		c0,1.4,1.2,2.7,2.6,2.7C218.6,61.2,219.8,60,219.8,58.6z"/>
	<path class="st0" d="M238.5,34.6c0-1.6-1.3-2.8-2.7-2.8H232v-3.3v-3c0-1.6-1.3-2.8-2.8-2.8c-1.4,0-2.7,1.2-2.7,2.8v3v18.7v6.7
		c0,2,0.7,3.8,2.1,5.3c1.4,1.4,3.2,2.1,5.3,2.1h1.9c1.4,0,2.7-1.3,2.7-2.7c0-1.4-1.3-2.7-2.7-2.7h-1.9c-1.1,0-1.9-0.9-1.9-2v-6.7
		v-9.8h3.8C237.3,37.3,238.5,36,238.5,34.6"/>
	<path class="st0" d="M256,31.5c-3.7,0-6.7,1.3-9.3,3.9c-2.5,2.6-3.8,5.6-3.8,9.3v3.4c0,3.7,1.3,6.7,3.8,9.3
		c2.6,2.6,5.7,3.9,9.3,3.9c3.1,0,5.7-1.1,8-3.3c1.1-1,1.1-2.8,0-3.9c-1.1-1.1-2.8-1.1-3.9,0c-1.1,1.1-2.5,1.7-4.1,1.7
		c-2.1,0-4-0.8-5.5-2.3c-1.4-1.5-2.2-3.3-2.2-5.4v-3.4c0-2.1,0.8-3.9,2.3-5.4c1.5-1.5,3.3-2.3,5.4-2.3c3.2,0,5.8,1.5,5.8,4.7
		c0,1.3-0.9,2.3-2.3,2.3h-4.6c-1.4,0-2.7,1.3-2.7,2.7c0,1.4,1.3,2.7,2.7,2.7h4.6c2.1,0,4-0.8,5.4-2.2c1.5-1.5,2-3.3,2-5.5
		c0-3.1-1-5.1-2.6-6.9C262.2,32.6,259.2,31.5,256,31.5 M253.3,25.6c0.4,0,0.8-0.1,1.1-0.3l3.8-2.1c0.9-0.5,1.4-1.3,1.4-2.4
		c0-1-0.5-1.7-1.3-2.3c-0.9-0.6-1.7-0.6-2.6-0.2l-3.8,2.1c-0.9,0.5-1.4,1.3-1.4,2.4C250.5,24.4,251.8,25.6,253.3,25.6"/>
</g>
</svg>
